<mxfile host="app.diagrams.net" modified="2023-07-11T17:30:48.638Z" agent="Mozilla/5.0 (Windows NT 10.0; Win64; x64) AppleWebKit/537.36 (KHTML, like Gecko) Chrome/114.0.0.0 Safari/537.36 Edg/114.0.1823.67" etag="gFsQY9170gtf9mWKcuVj" version="21.4.0" type="github">
  <diagram name="Página-1" id="yTXSm63EAF9CAu3X3PxW">
    <mxGraphModel dx="471" dy="277" grid="1" gridSize="10" guides="1" tooltips="1" connect="1" arrows="1" fold="1" page="1" pageScale="1" pageWidth="827" pageHeight="1169" math="0" shadow="0">
      <root>
        <mxCell id="0" />
        <mxCell id="1" parent="0" />
        <mxCell id="r4XsrH1Lg6pkU6p0d0o0-1" value="Usuário" style="shape=umlActor;verticalLabelPosition=bottom;verticalAlign=top;html=1;outlineConnect=0;" parent="1" vertex="1">
          <mxGeometry x="40" y="80" width="30" height="60" as="geometry" />
        </mxCell>
        <mxCell id="8FX3LGPsW54AoSbG_i8O-1" value="Cadastrar contato" style="ellipse;whiteSpace=wrap;html=1;" vertex="1" parent="1">
          <mxGeometry x="70" y="10" width="90" height="60" as="geometry" />
        </mxCell>
        <mxCell id="8FX3LGPsW54AoSbG_i8O-2" value="Editar contato" style="ellipse;whiteSpace=wrap;html=1;" vertex="1" parent="1">
          <mxGeometry x="260" y="50" width="90" height="60" as="geometry" />
        </mxCell>
        <mxCell id="8FX3LGPsW54AoSbG_i8O-3" value="Ver lista de contatos" style="ellipse;whiteSpace=wrap;html=1;" vertex="1" parent="1">
          <mxGeometry x="260" y="120" width="90" height="60" as="geometry" />
        </mxCell>
        <mxCell id="8FX3LGPsW54AoSbG_i8O-4" value="Deletar contato" style="ellipse;whiteSpace=wrap;html=1;" vertex="1" parent="1">
          <mxGeometry x="190" y="10" width="80" height="60" as="geometry" />
        </mxCell>
        <mxCell id="8FX3LGPsW54AoSbG_i8O-5" value="Ver aniversariantes do mês" style="ellipse;whiteSpace=wrap;html=1;" vertex="1" parent="1">
          <mxGeometry x="140" y="140" width="100" height="60" as="geometry" />
        </mxCell>
        <mxCell id="8FX3LGPsW54AoSbG_i8O-8" value="" style="endArrow=none;html=1;rounded=0;" edge="1" parent="1" source="r4XsrH1Lg6pkU6p0d0o0-1" target="8FX3LGPsW54AoSbG_i8O-1">
          <mxGeometry width="50" height="50" relative="1" as="geometry">
            <mxPoint x="120" y="60" as="sourcePoint" />
            <mxPoint x="170" y="10" as="targetPoint" />
          </mxGeometry>
        </mxCell>
        <mxCell id="8FX3LGPsW54AoSbG_i8O-9" value="" style="endArrow=none;html=1;rounded=0;entryX=0.016;entryY=0.65;entryDx=0;entryDy=0;entryPerimeter=0;" edge="1" parent="1" source="r4XsrH1Lg6pkU6p0d0o0-1" target="8FX3LGPsW54AoSbG_i8O-4">
          <mxGeometry width="50" height="50" relative="1" as="geometry">
            <mxPoint x="140" y="140" as="sourcePoint" />
            <mxPoint x="190" y="90" as="targetPoint" />
          </mxGeometry>
        </mxCell>
        <mxCell id="8FX3LGPsW54AoSbG_i8O-10" value="" style="endArrow=none;html=1;rounded=0;entryX=0;entryY=0.5;entryDx=0;entryDy=0;" edge="1" parent="1" source="r4XsrH1Lg6pkU6p0d0o0-1" target="8FX3LGPsW54AoSbG_i8O-2">
          <mxGeometry width="50" height="50" relative="1" as="geometry">
            <mxPoint x="140" y="180" as="sourcePoint" />
            <mxPoint x="190" y="130" as="targetPoint" />
          </mxGeometry>
        </mxCell>
        <mxCell id="8FX3LGPsW54AoSbG_i8O-11" value="" style="endArrow=none;html=1;rounded=0;entryX=0.087;entryY=0.242;entryDx=0;entryDy=0;entryPerimeter=0;" edge="1" parent="1" source="r4XsrH1Lg6pkU6p0d0o0-1" target="8FX3LGPsW54AoSbG_i8O-3">
          <mxGeometry width="50" height="50" relative="1" as="geometry">
            <mxPoint x="120" y="230" as="sourcePoint" />
            <mxPoint x="170" y="180" as="targetPoint" />
          </mxGeometry>
        </mxCell>
        <mxCell id="8FX3LGPsW54AoSbG_i8O-12" value="" style="endArrow=none;html=1;rounded=0;" edge="1" parent="1" source="8FX3LGPsW54AoSbG_i8O-5" target="r4XsrH1Lg6pkU6p0d0o0-1">
          <mxGeometry width="50" height="50" relative="1" as="geometry">
            <mxPoint x="120" y="190" as="sourcePoint" />
            <mxPoint x="170" y="140" as="targetPoint" />
          </mxGeometry>
        </mxCell>
      </root>
    </mxGraphModel>
  </diagram>
</mxfile>
